<?xml version="1.0" standalone="no"?>
<!DOCTYPE svg PUBLIC "-//W3C//DTD SVG 20010904//EN"
 "http://www.w3.org/TR/2001/REC-SVG-20010904/DTD/svg10.dtd">
<svg version="1.0" xmlns="http://www.w3.org/2000/svg"
 width="300.000000pt" height="300.000000pt" viewBox="0 0 300.000000 300.000000"
 preserveAspectRatio="xMidYMid meet">
<metadata>
Created by potrace 1.10, written by Peter Selinger 2001-2011
</metadata>
<g transform="translate(0.000000,300.000000) scale(0.100000,-0.100000)"
fill="#000000" stroke="none">
<path d="M1385 2473 c-16 -8 -40 -25 -53 -36 -27 -25 -62 -100 -62 -132 0 -12
-7 -28 -15 -35 -9 -7 -14 -18 -12 -24 2 -6 -11 -29 -30 -50 -18 -22 -33 -48
-33 -58 0 -10 -10 -40 -22 -68 -17 -40 -27 -50 -45 -50 -13 0 -35 -11 -48 -25
-22 -21 -25 -33 -24 -87 0 -35 6 -79 13 -98 11 -30 18 -36 55 -42 24 -4 63
-21 89 -38 53 -35 114 -40 164 -14 30 15 32 15 47 -4 9 -12 41 -33 71 -47 48
-22 63 -25 120 -19 36 4 103 20 149 37 104 37 164 91 182 162 8 33 21 53 45
72 19 14 34 32 34 40 0 9 14 31 30 50 36 41 37 55 5 121 -20 41 -38 60 -94 96
-58 38 -70 50 -75 81 -9 48 -40 66 -117 68 l-64 1 -55 58 -56 58 -84 0 c-58
-1 -95 -6 -115 -17z m250 -56 c67 -71 165 -245 165 -293 0 -21 3 -25 9 -15 11
18 -8 75 -54 157 -47 83 -46 94 8 94 70 0 86 -15 118 -110 15 -47 28 -94 29
-105 0 -11 4 -26 9 -34 5 -8 8 3 7 32 0 25 -4 43 -7 41 -7 -4 -20 49 -13 55 2
3 15 -6 28 -18 23 -22 30 -47 42 -156 3 -27 8 -52 11 -55 3 -3 3 16 1 42 -4
30 -1 49 6 52 8 3 7 7 -1 13 -7 5 -16 23 -19 41 -5 26 -3 32 10 32 10 0 28
-24 46 -62 17 -34 30 -65 30 -69 0 -15 -52 -69 -61 -64 -5 4 -6 -7 -4 -22 4
-22 0 -32 -20 -46 -27 -19 -28 -17 -25 38 0 17 -4 41 -10 55 l-10 25 3 -27 c3
-16 0 -28 -4 -28 -5 0 -7 -19 -4 -42 2 -24 1 -60 -2 -82 -7 -45 -61 -121 -86
-121 -10 0 -21 -5 -25 -11 -8 -13 -46 -34 -61 -34 -14 0 -2 31 21 53 26 25 22
30 -8 11 -14 -9 -28 -30 -31 -45 -4 -24 -13 -31 -58 -44 -29 -8 -58 -15 -64
-15 -7 0 -10 34 -10 98 1 95 -10 162 -32 192 -9 13 -10 13 -5 -2 23 -73 27
-108 21 -183 -4 -45 -11 -89 -16 -96 -7 -9 -8 0 -4 26 l5 40 -11 -35 c-6 -19
-12 -37 -14 -38 -2 -2 -20 1 -40 8 -35 12 -36 13 -19 31 21 23 12 25 -20 4
-21 -14 -24 -13 -41 5 -13 15 -18 37 -19 90 -1 47 -6 74 -16 84 -13 14 -15 13
-15 -8 0 -13 3 -22 8 -19 14 8 7 -59 -10 -94 -21 -45 -52 -57 -75 -30 -18 20
-18 20 -18 -1 0 -24 -1 -25 -24 -16 -8 3 -12 12 -9 20 7 18 -16 74 -30 74 -7
0 -7 -4 1 -12 13 -13 17 -68 5 -68 -18 1 -47 32 -50 52 -2 13 -11 30 -19 38
-14 13 -14 11 0 -17 12 -25 13 -33 4 -33 -19 0 -33 12 -47 38 -6 12 -17 22
-23 22 -6 0 -3 -9 7 -20 19 -21 15 -36 -8 -27 -15 6 -37 79 -37 123 0 15 5 42
12 61 16 44 58 53 119 26 41 -18 101 -74 111 -105 3 -7 8 -10 12 -7 10 9 -51
88 -84 108 -17 10 -27 20 -24 24 3 3 -3 3 -14 0 -11 -2 -23 0 -26 6 -4 6 -3
11 3 11 6 0 8 6 6 13 -3 6 4 26 14 44 17 26 27 32 63 36 l43 4 -47 1 c-41 2
-46 4 -41 22 8 31 59 63 88 56 16 -4 25 -2 25 5 0 6 7 9 15 6 8 -4 17 -2 19 2
16 25 146 -30 195 -83 14 -14 29 -26 35 -26 23 0 -64 74 -121 102 -53 26 -71
30 -125 27 -52 -3 -63 -1 -66 13 -4 20 57 43 90 33 16 -5 20 -4 13 3 -5 6 -25
13 -43 15 -19 3 -36 7 -38 10 -2 2 7 30 21 61 19 43 30 56 41 52 8 -3 12 -2 9
4 -13 21 69 49 145 50 l75 0 60 -63z"/>
<path d="M1532 2423 c2 -9 13 -17 26 -18 27 -2 29 11 3 25 -27 14 -33 13 -29
-7z"/>
<path d="M1404 2411 c3 -5 17 -12 32 -15 43 -11 103 -54 135 -99 17 -23 56
-93 87 -155 57 -115 81 -146 41 -50 -32 75 -115 218 -145 249 -37 39 -168 100
-150 70z"/>
<path d="M1330 2400 c0 -7 24 -20 36 -20 13 0 1 19 -16 23 -11 3 -20 2 -20 -3z"/>
<path d="M1380 2360 c0 -6 7 -10 15 -10 8 0 15 2 15 4 0 2 -7 6 -15 10 -8 3
-15 1 -15 -4z"/>
<path d="M1301 2334 c0 -11 3 -14 6 -6 3 7 2 16 -1 19 -3 4 -6 -2 -5 -13z"/>
<path d="M1320 2339 c0 -5 9 -9 20 -9 11 0 20 2 20 4 0 2 -9 6 -20 9 -11 3
-20 1 -20 -4z"/>
<path d="M1430 2339 c34 -23 70 -39 70 -31 0 5 -16 16 -35 25 -40 19 -58 22
-35 6z"/>
<path d="M1630 2319 c7 -11 14 -19 16 -16 7 7 -7 37 -17 37 -6 0 -5 -9 1 -21z"/>
<path d="M1740 2335 c0 -3 9 -16 21 -28 13 -14 19 -17 17 -7 -5 23 -38 53 -38
35z"/>
<path d="M1446 2292 c-3 -5 8 -19 24 -31 36 -26 39 -19 6 14 -14 14 -27 21
-30 17z"/>
<path d="M1390 2280 c8 -5 20 -10 25 -10 6 0 3 5 -5 10 -8 5 -19 10 -25 10 -5
0 -3 -5 5 -10z"/>
<path d="M1540 2262 c6 -13 14 -21 18 -18 3 4 -2 14 -12 24 -18 16 -18 16 -6
-6z"/>
<path d="M1715 2250 c-4 -7 -4 -15 1 -19 11 -7 45 -58 56 -81 4 -8 7 -10 7 -4
2 22 -56 116 -64 104z"/>
<path d="M1817 2226 c-4 -10 -1 -24 8 -32 17 -17 19 -4 6 30 -7 18 -8 18 -14
2z"/>
<path d="M1505 2210 c3 -5 8 -10 11 -10 2 0 4 5 4 10 0 6 -5 10 -11 10 -5 0
-7 -4 -4 -10z"/>
<path d="M1250 2180 c-12 -8 -9 -10 13 -10 16 0 26 4 22 10 -8 12 -16 12 -35
0z"/>
<path d="M1324 2171 c7 -11 56 -21 56 -11 0 4 -10 10 -22 14 -32 8 -40 7 -34
-3z"/>
<path d="M1218 2163 c6 -2 10 -8 8 -12 -3 -4 7 -8 20 -9 15 -1 23 2 19 8 -4 6
-10 8 -15 5 -5 -3 -11 -1 -15 5 -3 5 -12 10 -18 9 -9 0 -8 -2 1 -6z"/>
<path d="M1285 2140 c3 -5 8 -10 11 -10 2 0 4 5 4 10 0 6 -5 10 -11 10 -5 0
-7 -4 -4 -10z"/>
<path d="M1590 2132 c0 -5 7 -13 16 -16 10 -4 14 -1 12 6 -5 15 -28 23 -28 10z"/>
<path d="M1823 2094 c-3 -8 -1 -20 6 -27 8 -8 11 -4 11 16 0 30 -7 35 -17 11z"/>
<path d="M1528 2056 c55 -60 81 -115 103 -216 12 -57 18 -74 18 -50 1 46 -23
139 -49 191 -23 45 -87 119 -102 119 -6 0 8 -20 30 -44z"/>
<path d="M1600 2077 c0 -5 11 -27 24 -50 14 -23 32 -70 42 -104 10 -35 21 -63
25 -63 10 0 -13 85 -38 140 -21 46 -52 91 -53 77z"/>
<path d="M1662 2060 c7 -10 14 -18 15 -16 6 6 -9 36 -18 36 -5 0 -4 -9 3 -20z"/>
<path d="M1420 2066 c0 -4 11 -19 24 -33 13 -14 31 -42 39 -62 37 -90 36 -88
36 -65 1 28 -44 116 -74 144 -14 13 -25 20 -25 16z"/>
<path d="M2011 2041 c-1 -24 2 -32 9 -25 7 7 7 19 1 35 -9 23 -10 22 -10 -10z"/>
<path d="M1245 2040 c3 -5 11 -10 16 -10 6 0 7 5 4 10 -3 6 -11 10 -16 10 -6
0 -7 -4 -4 -10z"/>
<path d="M1822 2013 c6 -21 8 -79 6 -130 -2 -50 0 -89 4 -87 9 6 11 178 2 223
-4 17 -10 31 -14 31 -5 0 -4 -17 2 -37z"/>
<path d="M1510 2011 c0 -5 5 -13 10 -16 6 -3 10 -2 10 4 0 5 -4 13 -10 16 -5
3 -10 2 -10 -4z"/>
<path d="M1270 2000 c0 -5 5 -10 11 -10 5 0 7 5 4 10 -3 6 -8 10 -11 10 -2 0
-4 -4 -4 -10z"/>
<path d="M1866 1985 c-4 -11 -2 -22 6 -26 17 -11 20 -6 10 21 -8 21 -9 22 -16
5z"/>
<path d="M1088 1983 c7 -3 16 -2 19 1 4 3 -2 6 -13 5 -11 0 -14 -3 -6 -6z"/>
<path d="M1120 1972 c0 -4 16 -17 35 -30 19 -12 35 -18 35 -13 0 5 -16 18 -35
30 -19 11 -35 17 -35 13z"/>
<path d="M1961 1954 c0 -11 3 -14 6 -6 3 7 2 16 -1 19 -3 4 -6 -2 -5 -13z"/>
<path d="M1738 1915 c4 -27 7 -69 7 -92 0 -24 4 -43 9 -43 12 0 2 141 -12 165
-9 16 -10 10 -4 -30z"/>
<path d="M1340 1941 c0 -5 7 -15 17 -22 15 -13 15 -12 4 9 -12 23 -21 28 -21
13z"/>
<path d="M1700 1919 c0 -16 4 -28 9 -25 8 5 3 56 -5 56 -2 0 -4 -14 -4 -31z"/>
<path d="M1088 1923 c7 -3 16 -2 19 1 4 3 -2 6 -13 5 -11 0 -14 -3 -6 -6z"/>
<path d="M1221 1894 c13 -17 26 -30 28 -27 3 2 -8 16 -24 31 l-28 27 24 -31z"/>
<path d="M1150 1900 c0 -5 5 -10 11 -10 5 0 7 5 4 10 -3 6 -8 10 -11 10 -2 0
-4 -4 -4 -10z"/>
<path d="M1410 1900 c0 -5 5 -10 11 -10 5 0 7 5 4 10 -3 6 -8 10 -11 10 -2 0
-4 -4 -4 -10z"/>
<path d="M1090 1870 c0 -5 5 -10 11 -10 5 0 7 5 4 10 -3 6 -8 10 -11 10 -2 0
-4 -4 -4 -10z"/>
<path d="M1436 1860 c7 -28 12 -35 18 -29 2 2 -2 15 -10 29 l-15 25 7 -25z"/>
<path d="M1307 1863 c-4 -7 1 -18 11 -25 11 -7 18 -21 16 -30 -1 -10 2 -20 6
-23 12 -7 25 16 14 24 -5 3 -9 12 -9 19 0 6 -4 12 -10 11 -5 0 -12 7 -15 17
-4 12 -9 14 -13 7z"/>
<path d="M1522 1835 c-1 -16 -5 -41 -8 -55 -5 -19 -4 -22 5 -14 7 7 11 29 8
55 -2 30 -4 34 -5 14z"/>
<path d="M1260 1835 c0 -15 18 -40 24 -34 3 3 -1 14 -9 25 -8 10 -14 15 -15 9z"/>
<path d="M1694 1784 c0 -32 3 -49 8 -42 10 17 10 85 0 92 -4 2 -8 -20 -8 -50z"/>
<path d="M1877 1826 c-3 -8 -2 -18 3 -21 13 -8 24 15 12 27 -6 6 -11 4 -15 -6z"/>
<path d="M1420 1815 c0 -8 4 -15 10 -15 5 0 7 7 4 15 -4 8 -8 15 -10 15 -2 0
-4 -7 -4 -15z"/>
<path d="M1437 1773 c3 -7 9 -13 14 -13 5 0 9 6 9 13 0 8 -6 14 -14 14 -8 0
-12 -6 -9 -14z"/>
<path d="M1437 1743 c-4 -3 -7 -11 -7 -17 0 -6 5 -5 12 2 6 6 9 14 7 17 -3 3
-9 2 -12 -2z"/>
<path d="M1640 1715 c0 -8 2 -15 4 -15 2 0 6 7 10 15 3 8 1 15 -4 15 -6 0 -10
-7 -10 -15z"/>
<path d="M710 1980 c0 -49 1 -50 30 -50 17 0 30 5 30 10 0 6 -9 10 -20 10 -25
0 -25 9 -2 26 16 13 16 13 0 14 -25 0 -23 20 2 20 11 0 20 5 20 10 0 6 -13 10
-30 10 -29 0 -30 -1 -30 -50z"/>
<path d="M783 2014 c-4 -10 4 -25 23 -41 l29 -24 -28 4 c-18 3 -26 0 -24 -7 2
-6 15 -11 28 -11 32 0 39 39 9 55 -23 12 -18 33 5 23 8 -3 15 0 15 6 0 17 -50
13 -57 -5z"/>
<path d="M2201 2016 c-8 -10 -9 -16 -1 -21 5 -3 10 -1 10 4 0 6 8 11 17 11 13
0 11 -6 -10 -28 -35 -37 -34 -52 3 -52 17 0 30 5 30 10 0 6 -10 10 -22 10
l-23 0 24 19 c25 20 26 54 0 59 -9 1 -21 -4 -28 -12z"/>
<path d="M2274 2017 c-3 -8 -4 -30 -2 -49 2 -28 7 -33 28 -33 23 0 25 4 25 45
0 39 -3 45 -23 48 -13 2 -24 -3 -28 -11z m36 -37 c0 -33 -15 -41 -22 -12 -6
21 1 42 13 42 5 0 9 -13 9 -30z"/>
<path d="M693 1868 c-2 -5 3 -8 11 -8 12 0 16 -10 16 -39 0 -22 5 -43 10 -46
6 -4 10 12 10 39 0 36 4 46 17 46 9 0 13 3 10 7 -10 9 -68 10 -74 1z"/>
<path d="M2204 1868 c-10 -16 -5 -80 7 -92 5 -6 9 12 9 47 0 58 -3 66 -16 45z"/>
<path d="M780 1821 c0 -43 3 -51 19 -51 27 0 43 24 39 62 -2 28 -7 34 -30 36
-27 3 -28 2 -28 -47z m40 3 c0 -45 -22 -41 -25 4 -2 22 2 32 11 32 9 0 14 -12
14 -36z"/>
<path d="M2242 1825 c1 -50 17 -67 44 -44 10 8 14 25 12 48 -3 31 -7 36 -30
39 -26 3 -27 2 -26 -43z m38 20 c0 -8 -7 -15 -15 -15 -16 0 -20 12 -8 23 11
12 23 8 23 -8z m-3 -52 c-3 -3 -11 -2 -17 2 -9 6 -9 10 1 16 14 8 27 -7 16
-18z"/>
<path d="M1123 1493 c224 -2 590 -2 815 0 224 1 40 2 -408 2 -448 0 -632 -1
-407 -2z"/>
<path d="M1230 1170 c0 -53 4 -90 10 -90 6 0 10 37 10 90 0 53 -4 90 -10 90
-6 0 -10 -37 -10 -90z"/>
<path d="M1325 1170 c0 -65 3 -90 13 -90 9 0 12 25 12 90 0 65 -3 90 -12 90
-10 0 -13 -25 -13 -90z"/>
<path d="M1401 1234 c-33 -41 -28 -96 10 -128 40 -34 74 -33 110 3 37 37 38
79 3 120 -35 42 -92 44 -123 5z m108 -10 c28 -35 27 -87 -1 -114 -37 -34 -81
-20 -104 35 -33 80 54 144 105 79z"/>
<path d="M1580 1170 c0 -65 3 -90 13 -90 9 0 11 22 9 86 l-4 85 34 -3 c45 -4
51 -40 11 -63 -26 -15 -27 -15 -3 -9 34 9 50 23 50 43 0 28 -22 41 -67 41
l-43 0 0 -90z"/>
<path d="M1745 1234 c-67 -73 16 -185 103 -140 16 8 32 23 36 31 11 30 6 30
-17 3 -47 -56 -127 -28 -127 45 0 70 59 101 107 55 19 -18 23 -19 23 -5 0 43
-89 50 -125 11z"/>
<path d="M1273 1183 c9 -2 23 -2 30 0 6 3 -1 5 -18 5 -16 0 -22 -2 -12 -5z"/>
<path d="M1751 1186 c12 -10 79 -16 79 -6 0 5 -19 10 -42 10 -23 0 -39 -2 -37
-4z"/>
<path d="M642 1042 c17 -43 83 -172 87 -172 3 0 14 19 24 43 11 23 25 57 33
75 8 17 12 32 9 32 -4 0 -19 -28 -34 -62 l-29 -62 -35 77 c-20 42 -41 77 -47
77 -6 0 -10 -4 -8 -8z"/>
<path d="M808 960 c-2 -67 0 -90 10 -90 9 0 12 25 12 90 0 50 -4 90 -9 90 -5
0 -11 -41 -13 -90z"/>
<path d="M944 960 c16 -49 35 -90 41 -90 7 0 0 35 -19 90 -17 49 -36 90 -42
90 -6 0 2 -38 20 -90z"/>
<path d="M1040 1030 c-15 -28 2 -55 50 -80 41 -21 49 -37 28 -58 -18 -18 -36
-15 -65 14 -14 14 -28 22 -32 19 -3 -4 7 -18 22 -31 45 -39 97 -28 97 21 0 22
-28 55 -47 55 -18 0 -46 39 -40 55 9 23 53 18 71 -7 11 -16 16 -18 16 -7 0 41
-80 56 -100 19z"/>
<path d="M1170 960 c0 -65 3 -90 13 -90 9 0 12 25 12 90 0 65 -3 90 -12 90
-10 0 -13 -25 -13 -90z"/>
<path d="M1253 1028 c-29 -32 -37 -65 -23 -97 12 -30 57 -61 88 -61 32 0 72
41 78 81 13 79 -90 134 -143 77z m102 -13 c16 -15 25 -36 25 -55 0 -34 -38
-80 -65 -80 -24 0 -75 55 -75 80 0 72 67 104 115 55z"/>
<path d="M1492 960 c63 -79 88 -103 88 -85 0 14 -135 175 -146 175 -7 0 19
-40 58 -90z"/>
<path d="M1557 993 c6 -84 11 -88 12 -10 1 37 -3 67 -7 67 -5 0 -7 -26 -5 -57z"/>
<path d="M1610 960 l0 -90 46 0 c37 0 51 5 75 29 32 33 37 67 14 110 -21 41
-76 56 -103 29 -9 -9 -12 -9 -12 0 0 7 -4 12 -10 12 -6 0 -10 -37 -10 -90z
m104 67 c9 -7 20 -31 23 -54 5 -35 2 -45 -20 -67 -17 -17 -37 -26 -57 -26
l-30 0 0 68 c0 40 5 73 12 80 16 16 50 15 72 -1z"/>
<path d="M1790 974 c5 -81 20 -104 67 -104 42 0 63 36 63 112 0 37 -4 68 -8
68 -5 0 -6 -26 -4 -59 5 -67 -8 -98 -43 -107 -43 -11 -55 10 -55 92 0 53 -4
74 -12 74 -10 0 -12 -19 -8 -76z"/>
<path d="M1950 960 c0 -65 3 -90 13 -90 9 0 11 22 8 85 l-3 85 29 0 c28 0 53
-15 53 -32 0 -5 -15 -18 -32 -29 -18 -12 -25 -18 -15 -15 10 3 22 6 27 6 11 0
40 29 40 40 0 22 -34 40 -76 40 l-44 0 0 -90z"/>
<path d="M2126 973 c-16 -43 -31 -84 -33 -90 -3 -7 -1 -13 4 -13 5 0 14 17 19
38 7 29 14 37 32 36 27 -1 28 4 3 14 -17 6 -18 10 -7 36 11 28 12 28 36 -48
14 -44 29 -76 37 -76 14 0 18 16 5 24 -4 3 -19 39 -32 80 -13 42 -26 76 -29
76 -4 0 -19 -35 -35 -77z"/>
<path d="M2258 960 c2 -49 8 -90 13 -90 5 0 9 41 9 90 0 65 -3 90 -12 90 -10
0 -12 -23 -10 -90z"/>
<path d="M2370 971 c63 -81 87 -107 95 -100 7 8 -129 178 -143 178 -7 1 14
-35 48 -78z"/>
<path d="M2441 988 c1 -72 5 -68 12 10 2 28 0 52 -4 52 -5 0 -9 -28 -8 -62z"/>
<path d="M886 952 c-10 -31 -21 -63 -23 -69 -3 -7 -1 -13 4 -13 5 0 14 17 19
38 7 29 14 37 31 36 12 0 20 3 17 8 -3 4 -11 8 -18 8 -9 0 -12 9 -8 25 8 42
-2 28 -22 -33z"/>
<path d="M2321 943 c-1 -40 3 -73 7 -73 5 0 7 28 4 63 -5 89 -10 94 -11 10z"/>
<path d="M1440 940 c-6 -65 -5 -78 6 -68 3 3 4 34 2 69 l-3 64 -5 -65z"/>
<path d="M649 930 c-4 -30 -5 -57 -3 -59 10 -11 15 12 12 60 l-3 54 -6 -55z"/>
</g>
</svg>
